<svg width="40" height="31" viewBox="0 0 40 31" fill="none" xmlns="http://www.w3.org/2000/svg">
<g clip-path="url(#clip0_2217_1496)">
<path d="M15.1001 15.9V18.6H26.7001C26.4569 21.0988 25.2345 23.3997 23.3001 25C21.0471 26.7449 18.2467 27.6311 15.4001 27.5C13.7471 27.5572 12.1006 27.2662 10.5674 26.646C9.03415 26.0259 7.64842 25.0903 6.50007 23.9C5.35306 22.7661 4.45069 21.409 3.8487 19.9126C3.24672 18.4163 2.9579 16.8124 3.00007 15.2C2.94404 13.571 3.22611 11.948 3.8285 10.4335C4.43089 8.9189 5.34053 7.54555 6.50007 6.40001C7.64842 5.20973 9.03415 4.27415 10.5674 3.65397C12.1006 3.03378 13.7471 2.74283 15.4001 2.80001C17.5046 2.8069 19.5715 3.35809 21.4001 4.40001L22.3001 5.1H26.8001C23.8381 1.92613 19.7385 0.0561582 15.4001 -0.0999945C13.3639 -0.151859 11.3384 0.21152 9.44727 0.967991C7.5561 1.72446 5.83878 2.85817 4.40006 4.30001C2.96871 5.70482 1.83995 7.38768 1.08326 9.24501C0.326567 11.1024 -0.0420519 13.0949 6.8797e-05 15.1C-0.034247 17.0892 0.338343 19.0644 1.09498 20.9044C1.85161 22.7444 2.97632 24.4104 4.40006 25.8C5.82428 27.2614 7.53906 28.408 9.43372 29.1659C11.3284 29.9238 13.3609 30.276 15.4001 30.2C19.8001 30.2 23.3001 29 25.9001 26.5C27.125 25.305 28.0937 23.8729 28.747 22.2912C29.4004 20.7094 29.7247 19.0112 29.7001 17.3V15.8L15.1001 15.9Z" fill="white"/>
<path d="M29.7999 0.399988L27.2 0.299988L36.9 30L40 30.1L29.7999 0.399988Z" fill="white"/>
</g>
<defs>
<clipPath id="clip0_2217_1496">
<rect width="40" height="30.3" fill="white"/>
</clipPath>
</defs>
</svg>
